<svg width="20" height="18" viewBox="0 0 20 18" fill="none" xmlns="http://www.w3.org/2000/svg">
<path d="M9.73764 11.6238L12.9264 8.18439C13.292 7.79771 13.2514 7.20751 12.8858 6.84118C12.4999 6.47485 11.9109 6.51555 11.5453 6.88188L9.04708 9.58865L7.90969 8.36755C7.5441 7.98087 6.95509 7.96052 6.56919 8.32685C6.18328 8.69318 6.16297 9.28338 6.52856 9.67006L8.35652 11.6442C8.72211 12.0309 9.37205 12.0309 9.73764 11.6238Z" fill="#FFD300"/>
<path d="M17.8013 6.90277H17.1717C16.5623 3.32087 13.4345 0.59375 9.69735 0.59375C5.9602 0.59375 2.85267 3.32087 2.22304 6.90277H1.61372C0.760677 6.90277 0.0498047 7.61507 0.0498047 8.46984V11.0952C0.0498047 11.5226 0.21229 11.9093 0.516949 12.2146C0.821609 12.4995 1.20751 12.6623 1.61372 12.6623H3.01516C3.42137 12.6623 3.74634 12.3367 3.74634 11.9296V8.18492C3.74634 4.9083 6.40703 2.24223 9.67704 2.24223C12.9471 2.24223 15.6077 4.9083 15.6077 8.18492V13.2932C15.6077 14.6364 14.511 15.7354 13.1705 15.7354H11.83C11.7284 15.308 11.3628 15.0027 10.8957 15.0027H8.47872C7.93033 15.0027 7.50381 15.4505 7.50381 15.9796V16.6512C7.50381 17.2007 7.95064 17.6281 8.47872 17.6281H10.9363C11.3831 17.6281 11.7487 17.3025 11.8706 16.8954H13.2111C15.1812 16.8954 16.8061 15.2877 16.8061 13.2932V12.6419H17.8013C18.2075 12.6419 18.6137 12.4791 18.8981 12.1942C19.2027 11.8889 19.3652 11.5022 19.3652 11.0749V8.46984C19.3652 7.61507 18.6747 6.92312 17.8013 6.90277Z" fill="#FFD300"/>
</svg>
