<svg width="105" height="105" viewBox="0 0 105 105" fill="none" xmlns="http://www.w3.org/2000/svg">
<path d="M105 52.5C105 81.4949 81.4949 105 52.5 105C23.5051 105 0 81.4949 0 52.5C0 23.5051 23.5051 0 52.5 0C81.4949 0 105 23.5051 105 52.5Z" fill="#303030"/>
<path d="M47.2863 81H30.4154C28.954 81.0027 27.581 80.301 26.7329 79.1222L25.2605 77.0965H25.2577C24.9566 76.6743 24.9152 76.1206 25.1555 75.6573C25.3931 75.1968 25.871 74.9062 26.3932 74.9035H47.2867L47.2863 81ZM48.3913 81H56.6404V74.9035H48.3913V81ZM79.8104 75.6573C79.5701 75.2023 79.0922 74.9199 78.5728 74.9254H57.7458V80.9999H74.6166C76.078 81.0027 77.451 80.3009 78.2991 79.1222L79.7715 77.0909L79.7743 77.0882C80.0616 76.6578 80.0757 76.1014 79.8104 75.6573ZM68.5309 39.8733C68.5392 43.5027 67.2905 47.0249 65.0003 49.8516C62.7074 52.6805 59.5083 54.6432 55.9337 55.4163C55.4613 55.5232 55.0829 55.8796 54.9558 56.3428L53.9888 59.6103C53.8093 60.271 53.207 60.7315 52.5164 60.737C51.8285 60.7288 51.229 60.2737 51.044 59.6186L50.1019 56.3209H50.0992C49.9611 55.8548 49.5715 55.5067 49.0908 55.4162C45.1376 54.5554 41.6565 52.2446 39.3523 48.9414C37.0456 45.6409 36.087 41.5947 36.6643 37.6199C37.2417 33.6451 39.3164 30.0346 42.4685 27.516C45.6206 24.9974 49.6178 23.755 53.654 24.0401C57.6929 24.3252 61.4695 26.118 64.2291 29.0538C66.9916 31.9924 68.5282 35.8573 68.5309 39.8733ZM62.4394 39.8733C62.4449 39.325 62.0996 38.8316 61.5774 38.6452L55.9638 36.5838C55.9031 36.5618 55.8561 36.5125 55.8312 36.4522L53.762 30.8902C53.5687 30.3721 53.0714 30.0267 52.5161 30.0267C51.9609 30.0267 51.4636 30.3721 51.2702 30.8902L49.201 36.4522C49.1761 36.5125 49.1292 36.5618 49.0684 36.5838L43.4631 38.6452C42.9382 38.8288 42.5901 39.3223 42.5929 39.8733C42.5901 40.4242 42.9354 40.9177 43.4548 41.1095L49.0684 43.171C49.1292 43.1901 49.1761 43.2368 49.201 43.2943L51.2702 48.8371C51.4691 49.347 51.9636 49.6868 52.5161 49.6868C53.0686 49.6868 53.5632 49.3469 53.762 48.8371L55.8312 43.2669C55.8561 43.2066 55.9031 43.1627 55.9638 43.1408L61.5774 41.0794C62.0885 40.893 62.4311 40.4133 62.4394 39.8733ZM61.1935 39.6677L55.5799 37.6145C55.218 37.4801 54.9334 37.195 54.8008 36.8332L52.7233 31.2932C52.6902 31.2082 52.6073 31.1506 52.5161 31.1506C52.425 31.1506 52.3421 31.2082 52.309 31.2932L50.2315 36.8332C50.1016 37.1923 49.8143 37.4774 49.4524 37.609L43.8471 39.6704H43.8443C43.7559 39.6978 43.6951 39.7801 43.6979 39.8733C43.6951 39.9665 43.7559 40.0514 43.8443 40.0788L49.4496 42.1403H49.4524C49.8143 42.2718 50.0988 42.5569 50.2315 42.9161L52.309 48.4863C52.3421 48.5712 52.425 48.6261 52.5161 48.6261C52.6073 48.6261 52.6902 48.5712 52.7233 48.4863L54.8008 42.9161C54.9334 42.5569 55.218 42.2719 55.5799 42.1403L61.188 40.0652C61.2764 40.0377 61.3371 39.9528 61.3344 39.8596C61.3316 39.7746 61.2764 39.6978 61.1935 39.6704L61.1935 39.6677ZM29.8408 73.8068V50.4158C29.8436 48.1405 31.7028 46.2957 33.9958 46.293H36.6921C38.8027 51.463 43.3443 55.2706 48.8337 56.4741C48.911 56.4878 48.9746 56.5453 48.9939 56.6221L49.9359 59.9198L49.9387 59.9171C50.2592 61.0629 51.3172 61.8496 52.5162 61.8332C53.7069 61.8387 54.7567 61.0519 55.0716 59.9116L56.0136 56.6303L56.0164 56.6276C56.0329 56.5508 56.0937 56.4932 56.1711 56.474C61.6797 55.2844 66.2434 51.474 68.3707 46.2929H71.0366C73.3295 46.2957 75.1888 48.1405 75.1915 50.4158V73.8068L29.8408 73.8068ZM33.7223 71.6138C33.7223 71.9153 33.9709 72.162 34.2748 72.162H70.7577C71.0616 72.162 71.3102 71.9153 71.3102 71.6138V50.613C71.3102 50.3087 71.0616 50.0647 70.7577 50.0647H67.7354C67.4315 50.0647 67.1829 50.3087 67.1829 50.613C67.1829 50.9145 67.4315 51.1612 67.7354 51.1612H70.1969V66.249H34.8357V51.1612H37.3027C37.6094 51.1612 37.8552 50.9145 37.8552 50.613C37.8552 50.3087 37.6094 50.0647 37.3027 50.0647H34.2832C33.9793 50.0647 33.7307 50.3087 33.7307 50.613L33.7223 71.6138ZM70.1967 67.3457H34.8355V71.0958H70.1967V67.3457Z" fill="#FCC304"/>
</svg>
